<?xml version="1.0" encoding="UTF-8" standalone="no"?>
<!-- Created with Inkscape (http://www.inkscape.org/) -->

<svg
   xmlns:dc="http://purl.org/dc/elements/1.1/"
   xmlns:cc="http://creativecommons.org/ns#"
   xmlns:rdf="http://www.w3.org/1999/02/22-rdf-syntax-ns#"
   xmlns:svg="http://www.w3.org/2000/svg"
   xmlns="http://www.w3.org/2000/svg"
   xmlns:xlink="http://www.w3.org/1999/xlink"
   xmlns:sodipodi="http://sodipodi.sourceforge.net/DTD/sodipodi-0.dtd"
   xmlns:inkscape="http://www.inkscape.org/namespaces/inkscape"
   width="310.20999"
   height="432.92999"
   id="svg2"
   version="1.1"
   inkscape:version="0.47 r22583"
   sodipodi:docname="drawing.svg">
  <defs
     id="defs4">
    <linearGradient
       id="linearGradient4878">
      <stop
         style="stop-color:#e6f0fa;stop-opacity:1;"
         offset="0"
         id="stop4880" />
      <stop
         style="stop-color:#e6f0fa;stop-opacity:0;"
         offset="1"
         id="stop4882" />
    </linearGradient>
    <linearGradient
       id="linearGradient4855">
      <stop
         style="stop-color:#e6f0fa;stop-opacity:1;"
         offset="0"
         id="stop4857" />
      <stop
         style="stop-color:#e6f0fa;stop-opacity:0.78625953;"
         offset="1"
         id="stop4859" />
    </linearGradient>
    <marker
       inkscape:stockid="Arrow2Mend"
       orient="auto"
       refY="0"
       refX="0"
       id="Arrow2Mend"
       style="overflow:visible">
      <path
         id="path3765"
         style="font-size:12px;fill-rule:evenodd;stroke-width:0.625;stroke-linejoin:round"
         d="M 8.7185878,4.0337352 -2.2072895,0.01601326 8.7185884,-4.0017078 c -1.7454984,2.3720609 -1.7354408,5.6174519 -6e-7,8.035443 z"
         transform="scale(-0.6,-0.6)" />
    </marker>
    <marker
       inkscape:stockid="TriangleOutM"
       orient="auto"
       refY="0"
       refX="0"
       id="TriangleOutM"
       style="overflow:visible">
      <path
         id="path3884"
         d="m 5.77,0 -8.65,5 0,-10 8.65,5 z"
         style="fill-rule:evenodd;stroke:#000000;stroke-width:1pt;marker-start:none"
         transform="scale(0.4,0.4)" />
    </marker>
    <marker
       inkscape:stockid="Arrow1Mend"
       orient="auto"
       refY="0"
       refX="0"
       id="Arrow1Mend"
       style="overflow:visible">
      <path
         id="path3747"
         d="M 0,0 5,-5 -12.5,0 5,5 0,0 z"
         style="fill-rule:evenodd;stroke:#000000;stroke-width:1pt;marker-start:none"
         transform="matrix(-0.4,0,0,-0.4,-4,0)" />
    </marker>
    <inkscape:perspective
       sodipodi:type="inkscape:persp3d"
       inkscape:vp_x="0 : 526.18109 : 1"
       inkscape:vp_y="0 : 1000 : 0"
       inkscape:vp_z="744.09448 : 526.18109 : 1"
       inkscape:persp3d-origin="372.04724 : 350.78739 : 1"
       id="perspective10" />
    <inkscape:perspective
       id="perspective3638"
       inkscape:persp3d-origin="0.5 : 0.33333333 : 1"
       inkscape:vp_z="1 : 0.5 : 1"
       inkscape:vp_y="0 : 1000 : 0"
       inkscape:vp_x="0 : 0.5 : 1"
       sodipodi:type="inkscape:persp3d" />
    <inkscape:perspective
       id="perspective3660"
       inkscape:persp3d-origin="0.5 : 0.33333333 : 1"
       inkscape:vp_z="1 : 0.5 : 1"
       inkscape:vp_y="0 : 1000 : 0"
       inkscape:vp_x="0 : 0.5 : 1"
       sodipodi:type="inkscape:persp3d" />
    <inkscape:perspective
       id="perspective3660-5"
       inkscape:persp3d-origin="0.5 : 0.33333333 : 1"
       inkscape:vp_z="1 : 0.5 : 1"
       inkscape:vp_y="0 : 1000 : 0"
       inkscape:vp_x="0 : 0.5 : 1"
       sodipodi:type="inkscape:persp3d" />
    <inkscape:perspective
       id="perspective4753"
       inkscape:persp3d-origin="0.5 : 0.33333333 : 1"
       inkscape:vp_z="1 : 0.5 : 1"
       inkscape:vp_y="0 : 1000 : 0"
       inkscape:vp_x="0 : 0.5 : 1"
       sodipodi:type="inkscape:persp3d" />
    <marker
       inkscape:stockid="Arrow2Mend"
       orient="auto"
       refY="0"
       refX="0"
       id="Arrow2Mend-1"
       style="overflow:visible">
      <path
         id="path3765-9"
         style="font-size:12px;fill-rule:evenodd;stroke-width:0.625;stroke-linejoin:round"
         d="M 8.7185878,4.0337352 -2.2072895,0.01601326 8.7185884,-4.0017078 c -1.7454984,2.3720609 -1.7354408,5.6174519 -6e-7,8.035443 z"
         transform="scale(-0.6,-0.6)" />
    </marker>
    <inkscape:perspective
       id="perspective4794"
       inkscape:persp3d-origin="0.5 : 0.33333333 : 1"
       inkscape:vp_z="1 : 0.5 : 1"
       inkscape:vp_y="0 : 1000 : 0"
       inkscape:vp_x="0 : 0.5 : 1"
       sodipodi:type="inkscape:persp3d" />
    <marker
       inkscape:stockid="Arrow2Mend"
       orient="auto"
       refY="0"
       refX="0"
       id="Arrow2Mend-6"
       style="overflow:visible">
      <path
         id="path3765-3"
         style="font-size:12px;fill-rule:evenodd;stroke-width:0.625;stroke-linejoin:round"
         d="M 8.7185878,4.0337352 -2.2072895,0.01601326 8.7185884,-4.0017078 c -1.7454984,2.3720609 -1.7354408,5.6174519 -6e-7,8.035443 z"
         transform="scale(-0.6,-0.6)" />
    </marker>
    <inkscape:perspective
       id="perspective4826"
       inkscape:persp3d-origin="0.5 : 0.33333333 : 1"
       inkscape:vp_z="1 : 0.5 : 1"
       inkscape:vp_y="0 : 1000 : 0"
       inkscape:vp_x="0 : 0.5 : 1"
       sodipodi:type="inkscape:persp3d" />
    <linearGradient
       inkscape:collect="always"
       xlink:href="#linearGradient4878"
       id="linearGradient4884"
       x1="254.73215"
       y1="586.4693"
       x2="254.73215"
       y2="558.25507"
       gradientUnits="userSpaceOnUse" />
    <inkscape:perspective
       id="perspective4894"
       inkscape:persp3d-origin="0.5 : 0.33333333 : 1"
       inkscape:vp_z="1 : 0.5 : 1"
       inkscape:vp_y="0 : 1000 : 0"
       inkscape:vp_x="0 : 0.5 : 1"
       sodipodi:type="inkscape:persp3d" />
    <linearGradient
       inkscape:collect="always"
       xlink:href="#linearGradient4878-2"
       id="linearGradient4884-5"
       x1="254.73215"
       y1="586.4693"
       x2="254.73215"
       y2="558.25507"
       gradientUnits="userSpaceOnUse" />
    <linearGradient
       id="linearGradient4878-2">
      <stop
         style="stop-color:#e6f0fa;stop-opacity:1;"
         offset="0"
         id="stop4880-9" />
      <stop
         style="stop-color:#e6f0fa;stop-opacity:0;"
         offset="1"
         id="stop4882-9" />
    </linearGradient>
    <linearGradient
       gradientTransform="translate(146.16072,-1364.7244)"
       y2="558.25507"
       x2="254.73215"
       y1="586.4693"
       x1="254.73215"
       gradientUnits="userSpaceOnUse"
       id="linearGradient4903"
       xlink:href="#linearGradient4878-2"
       inkscape:collect="always" />
    <linearGradient
       inkscape:collect="always"
       xlink:href="#linearGradient4878-2"
       id="linearGradient4954"
       gradientUnits="userSpaceOnUse"
       gradientTransform="translate(146.16072,-1364.7244)"
       x1="254.73215"
       y1="586.4693"
       x2="254.73215"
       y2="558.25507" />
    <linearGradient
       inkscape:collect="always"
       xlink:href="#linearGradient4878"
       id="linearGradient4956"
       gradientUnits="userSpaceOnUse"
       x1="254.73215"
       y1="586.4693"
       x2="254.73215"
       y2="558.25507" />
  </defs>
  <sodipodi:namedview
     id="base"
     pagecolor="#ffffff"
     bordercolor="#666666"
     borderopacity="1.0"
     inkscape:pageopacity="0.0"
     inkscape:pageshadow="2"
     inkscape:zoom="0.98994949"
     inkscape:cx="112.82979"
     inkscape:cy="225.7909"
     inkscape:document-units="px"
     inkscape:current-layer="layer1"
     showgrid="false"
     inkscape:window-width="1366"
     inkscape:window-height="739"
     inkscape:window-x="0"
     inkscape:window-y="1"
     inkscape:window-maximized="1" />
  <metadata
     id="metadata7">
    <rdf:RDF>
      <cc:Work
         rdf:about="">
        <dc:format>image/svg+xml</dc:format>
        <dc:type
           rdf:resource="http://purl.org/dc/dcmitype/StillImage" />
        <dc:title></dc:title>
      </cc:Work>
    </rdf:RDF>
  </metadata>
  <g
     inkscape:label="Layer 1"
     inkscape:groupmode="layer"
     id="layer1"
     transform="translate(-186.75464,-452.93054)">
    <g
       id="g4945"
       transform="translate(15.002476,-10.001284)">
      <rect
         transform="scale(1,-1)"
         y="-806.46936"
         x="378.83929"
         height="49.107147"
         width="44.107143"
         id="rect4863-3"
         style="color:#000000;fill:url(#linearGradient4954);fill-opacity:1;fill-rule:nonzero;stroke:none;stroke-width:5;marker:none;visibility:visible;display:inline;overflow:visible;enable-background:accumulate" />
      <rect
         y="558.25507"
         x="232.67857"
         height="49.107147"
         width="44.107143"
         id="rect4863"
         style="color:#000000;fill:url(#linearGradient4956);fill-opacity:1;fill-rule:nonzero;stroke:none;stroke-width:5;marker:none;visibility:visible;display:inline;overflow:visible;enable-background:accumulate" />
      <rect
         y="605.78809"
         x="188.54665"
         height="151.90169"
         width="275.5191"
         id="rect4853"
         style="color:#000000;fill:#e6f0fa;fill-opacity:1;stroke:none;stroke-width:5;marker:none;visibility:visible;display:inline;overflow:visible;enable-background:accumulate" />
    </g>
    <g
       style="stroke-width:5.92024803;stroke-miterlimit:4;stroke-dasharray:none"
       id="g3707"
       transform="matrix(0.84455922,0,0,0.84455922,206.43105,140.0081)">
      <g
         style="stroke-width:5.92024803;stroke-miterlimit:4;stroke-dasharray:none"
         id="g3702" />
    </g>
    <path
       d="M 453.50631,827.66232 436.9639,799.01003 m -58.75499,28.74519 16.54241,-28.65229 m -0.003,-0.0433 0,-50.67355 -190.4912,-1.8e-4 0,-152.35375 44.19146,0 -0.0134,-50.68695 -16.55586,-28.66538 m 205.09734,282.37984 0,-50.67376 42.4852,0 3e-4,-152.35375 -188.78557,-3e-4 0,-50.67356 L 307.219,516.706"
       style="color:#000000;fill:none;stroke:#000000;stroke-width:5;stroke-linecap:round;stroke-linejoin:round;stroke-miterlimit:4;stroke-opacity:1;stroke-dasharray:none;stroke-dashoffset:0;marker:none;visibility:visible;display:inline;overflow:visible;enable-background:accumulate"
       id="rect3590-8-5" />
    <g
       style="font-size:36px;font-style:normal;font-variant:normal;font-weight:normal;font-stretch:normal;fill:#000000;fill-opacity:1;stroke:none;font-family:Gentium;-inkscape-font-specification:Gentium"
       id="text3722">
      <path
         d="m 228.3298,485.88885 c -0.0938,1.00782 -0.21681,1.89259 -0.36914,2.6543 -0.14064,0.75 -0.25783,1.29492 -0.35156,1.63477 l -15.16992,0 0,-0.75586 c 0.79687,-0.16406 1.41796,-0.33984 1.86328,-0.52735 0.45703,-0.19921 0.68554,-0.38085 0.68555,-0.54492 l 0,-18.47461 c -1e-5,-0.1406 -0.2168,-0.31638 -0.65039,-0.52734 -0.42188,-0.21092 -1.05469,-0.39842 -1.89844,-0.5625 l 0,-0.75586 14.16797,0 0.58008,0.43945 c -0.0235,0.30471 -0.0586,0.6387 -0.10547,1.00196 -0.0469,0.3633 -0.10549,0.72658 -0.17578,1.08984 -0.0703,0.3633 -0.1465,0.709 -0.22852,1.03711 -0.0703,0.32814 -0.14064,0.60353 -0.21094,0.82617 l -0.79101,0 c -0.0235,-0.53904 -0.0762,-0.99021 -0.15821,-1.35351 -0.0703,-0.36327 -0.16407,-0.65038 -0.28125,-0.86133 -0.1172,-0.22264 -0.26368,-0.37498 -0.43945,-0.45703 -0.16408,-0.0937 -0.35158,-0.14061 -0.5625,-0.14063 l -6.43359,0 0,7.64649 7.11914,0 0.45703,0.49218 c -0.0938,0.16408 -0.21095,0.33986 -0.35156,0.52735 -0.12892,0.17579 -0.26955,0.35157 -0.42188,0.52734 -0.14064,0.16407 -0.28712,0.32228 -0.43945,0.47461 -0.14064,0.14064 -0.27541,0.25782 -0.4043,0.35156 -0.17579,-0.17577 -0.36915,-0.32225 -0.58008,-0.43945 -0.19923,-0.11718 -0.4336,-0.21679 -0.70312,-0.29883 -0.25783,-0.082 -0.56837,-0.14061 -0.93164,-0.17578 -0.35157,-0.0351 -0.77345,-0.0527 -1.26563,-0.0527 l -2.47851,0 0,8.80664 c -1e-5,0.17578 0.041,0.33398 0.12304,0.47461 0.082,0.1289 0.25195,0.24609 0.50977,0.35156 0.2578,0.0937 0.62109,0.16992 1.08984,0.22851 0.46874,0.0469 1.08984,0.0703 1.86328,0.0703 l 2.26758,0 c 0.53905,0 0.99608,-0.0293 1.3711,-0.0879 0.3867,-0.0586 0.72654,-0.1875 1.01953,-0.38672 0.29295,-0.21094 0.55662,-0.51563 0.79101,-0.91407 0.24608,-0.39843 0.49217,-0.94335 0.73828,-1.63476 l 0.75586,0.3164 0,0"
         style=""
         id="path4987" />
      <path
         d="m 241.19699,490.17792 0,-0.75586 c 0.84374,-0.22266 1.46483,-0.41602 1.86328,-0.58008 0.39843,-0.16406 0.59764,-0.32812 0.59766,-0.49219 l 0,-9.29883 c -2e-5,-0.71483 -0.041,-1.29491 -0.12305,-1.74023 -0.082,-0.4453 -0.21095,-0.79686 -0.38672,-1.05469 -0.17579,-0.2578 -0.41017,-0.43358 -0.70312,-0.52734 -0.28126,-0.0937 -0.62697,-0.14061 -1.03711,-0.14063 -0.36329,2e-5 -0.76759,0.0879 -1.21289,0.26368 -0.44532,0.17579 -0.92579,0.45704 -1.44141,0.84375 -0.50391,0.38673 -1.03712,0.89649 -1.59961,1.52929 -0.55079,0.62111 -1.10743,1.38868 -1.66992,2.30274 l 0,7.82226 c -1e-5,0.17579 0.21679,0.35743 0.65039,0.54492 0.44531,0.18751 1.04882,0.36329 1.81055,0.52735 l 0,0.75586 -7.5586,0 0,-0.75586 c 0.77344,-0.19922 1.37695,-0.375 1.81055,-0.52735 0.43359,-0.16406 0.65039,-0.3457 0.65039,-0.54492 l 0,-10.66992 c 0,-0.45702 -0.0176,-0.8203 -0.0527,-1.08984 -0.0352,-0.26952 -0.13477,-0.48046 -0.29883,-0.63282 -0.15235,-0.15233 -0.39258,-0.26365 -0.7207,-0.33398 -0.32813,-0.0703 -0.79102,-0.14061 -1.38868,-0.21094 l 0,-0.70312 c 0.79688,-0.12889 1.53516,-0.31053 2.21485,-0.54492 0.67968,-0.24608 1.34765,-0.53319 2.0039,-0.86133 l 0.61524,0.61523 0.19336,4.37695 c 0.51562,-0.78514 1.08398,-1.4824 1.70508,-2.09179 0.62108,-0.62108 1.24803,-1.14256 1.88086,-1.56446 0.6328,-0.43357 1.24217,-0.7617 1.82812,-0.98437 0.59764,-0.23436 1.12499,-0.35155 1.58203,-0.35156 0.50389,1e-5 0.99022,0.0762 1.45899,0.22851 0.46873,0.15236 0.87889,0.38674 1.23046,0.70313 0.36327,0.31642 0.65038,0.72072 0.86133,1.21289 0.22264,0.48048 0.33397,1.04884 0.33399,1.70508 l 0,11.19726 c -2e-5,0.16407 0.17576,0.32813 0.52734,0.49219 0.36326,0.15234 1.0078,0.3457 1.93359,0.58008 l 0,0.75586 -7.55859,0"
         style=""
         id="path4989" />
      <path
         d="m 261.2009,488.12128 c -0.57423,0.42187 -1.14259,0.79687 -1.70508,1.125 -0.56251,0.3164 -1.10157,0.58593 -1.61719,0.80859 -0.50391,0.21094 -0.97266,0.36914 -1.40625,0.47461 -0.4336,0.11719 -0.80274,0.17578 -1.10742,0.17578 -0.41016,0 -0.80274,-0.0762 -1.17773,-0.22851 -0.36329,-0.15235 -0.68556,-0.39844 -0.9668,-0.73829 -0.28126,-0.35156 -0.50391,-0.80859 -0.66797,-1.37109 -0.16407,-0.5625 -0.2461,-1.2539 -0.24609,-2.07422 l 0,-10.81055 -2.26758,0 -0.36914,-0.49218 1.37109,-1.16016 1.26563,0 0,-4.32422 2.09179,-1.82812 0.54492,0.43945 0,5.71289 5.74805,0 0.50977,0.50977 c -0.10548,0.16408 -0.24025,0.33986 -0.4043,0.52734 -0.15235,0.1758 -0.31056,0.35158 -0.47461,0.52734 -0.16407,0.16408 -0.32813,0.31057 -0.49219,0.43946 -0.15235,0.12892 -0.28712,0.21681 -0.40429,0.26367 -0.28126,-0.14061 -0.709,-0.27538 -1.28321,-0.4043 -0.57422,-0.14061 -1.33594,-0.21092 -2.28515,-0.21094 l -0.91407,0 0,9.29883 c 0,0.70313 0.0293,1.28907 0.0879,1.75782 0.0703,0.45703 0.18163,0.82617 0.33398,1.10742 0.15234,0.26953 0.3457,0.46289 0.58008,0.58008 0.24608,0.10547 0.54491,0.1582 0.89648,0.1582 0.41015,0 0.92578,-0.0762 1.54688,-0.22852 0.62108,-0.15234 1.38866,-0.46289 2.30273,-0.93164 l 0.50977,0.89649 0,0"
         style=""
         id="path4991" />
      <path
         d="m 275.22824,473.95331 c 0.10546,0.0703 0.15233,0.2754 0.14063,0.61523 -2e-5,0.33986 -0.0469,0.73244 -0.14063,1.17774 -0.082,0.44532 -0.19337,0.90235 -0.33398,1.37109 -0.14064,0.46876 -0.28127,0.86134 -0.42188,1.17773 l -0.75586,0 c -0.0703,-0.46873 -0.16993,-0.86717 -0.29883,-1.19531 -0.12891,-0.32811 -0.28126,-0.58592 -0.45703,-0.77344 -0.16407,-0.1992 -0.35157,-0.33982 -0.5625,-0.42187 -0.19923,-0.0937 -0.41016,-0.14061 -0.63281,-0.14063 -0.25782,2e-5 -0.56251,0.11135 -0.91406,0.33399 -0.33985,0.21095 -0.69142,0.55079 -1.05469,1.01953 -0.36329,0.45704 -0.72657,1.04884 -1.08984,1.77539 -0.35157,0.71486 -0.66798,1.57032 -0.94922,2.56641 l 0,6.89062 c -1e-5,0.17579 0.21679,0.35743 0.65039,0.54492 0.4453,0.18751 1.21874,0.36329 2.32031,0.52735 l 0,0.75586 -8.06836,0 0,-0.75586 c 0.77344,-0.17578 1.37695,-0.3457 1.81055,-0.50977 0.43359,-0.17578 0.65039,-0.36328 0.65039,-0.5625 l 0,-10.23047 c 0,-0.3867 -0.0117,-0.70897 -0.0352,-0.96679 -0.0234,-0.26952 -0.0527,-0.48632 -0.0879,-0.65039 -0.0352,-0.16405 -0.082,-0.29296 -0.14062,-0.38672 -0.0469,-0.0937 -0.0938,-0.16991 -0.14063,-0.22852 -0.082,-0.082 -0.17578,-0.14647 -0.28125,-0.19336 -0.0937,-0.0586 -0.22266,-0.10545 -0.38672,-0.14062 -0.15234,-0.0351 -0.33984,-0.0586 -0.5625,-0.0703 -0.22265,-0.0234 -0.49804,-0.0469 -0.82617,-0.0703 l 0,-0.70312 c 0.76172,-0.19921 1.50586,-0.39842 2.23242,-0.59766 0.73828,-0.21092 1.40039,-0.48045 1.98633,-0.80859 l 0.61524,0.61523 0.22851,3.99024 c 0.3164,-0.64452 0.65624,-1.24804 1.01953,-1.81055 0.375,-0.56249 0.77343,-1.04881 1.19532,-1.45899 0.42186,-0.42185 0.86131,-0.74998 1.31835,-0.98437 0.46874,-0.23436 0.95507,-0.35155 1.45899,-0.35156 0.37499,1e-5 0.77928,0.0469 1.21289,0.14062 0.43358,0.0938 0.86717,0.26369 1.30078,0.50977"
         style=""
         id="path4993" />
      <path
         d="m 281.80246,488.4201 c 0.70312,1e-5 1.44726,-0.17577 2.23242,-0.52734 0.79687,-0.36328 1.64062,-0.93164 2.53125,-1.70508 l 0,-4.58789 -2.0918,0.4043 c -0.79688,0.14063 -1.48828,0.34571 -2.07421,0.61523 -0.57423,0.26954 -1.04884,0.58595 -1.42383,0.94922 -0.37501,0.36329 -0.6504,0.76759 -0.82617,1.21289 -0.17579,0.4336 -0.26368,0.89063 -0.26368,1.3711 0,0.46875 0.0703,0.84961 0.21094,1.14257 0.14062,0.29298 0.31054,0.52735 0.50977,0.70313 0.21093,0.16406 0.42187,0.27539 0.63281,0.33398 0.22265,0.0586 0.41015,0.0879 0.5625,0.0879 m 10.08984,0.31641 c -0.99611,0.69141 -1.82228,1.18945 -2.47851,1.49414 -0.64455,0.31641 -1.13087,0.47461 -1.45899,0.47461 -0.38673,0 -0.70899,-0.26953 -0.96679,-0.80859 -0.25783,-0.53906 -0.39845,-1.2832 -0.42188,-2.23242 -0.52735,0.52734 -1.0547,0.98437 -1.58203,1.37109 -0.52735,0.38672 -1.04298,0.70312 -1.54687,0.94922 -0.50392,0.24609 -0.98439,0.42773 -1.44141,0.54492 -0.44532,0.11719 -0.85548,0.17578 -1.23047,0.17578 -0.42188,0 -0.85547,-0.0703 -1.30078,-0.21094 -0.44532,-0.14062 -0.84961,-0.36328 -1.21289,-0.66797 -0.35157,-0.30468 -0.64453,-0.69726 -0.87891,-1.17773 -0.23437,-0.48047 -0.35156,-1.06054 -0.35156,-1.74023 0,-0.69141 0.12305,-1.34766 0.36914,-1.96875 0.25781,-0.63281 0.63281,-1.20703 1.125,-1.72266 0.5039,-0.51562 1.125,-0.96093 1.86328,-1.33594 0.73828,-0.38671 1.5996,-0.67968 2.58399,-0.8789 l 3.60351,-0.72071 0,-2.44336 c -10e-6,-0.39842 -0.0469,-0.76756 -0.14062,-1.10742 -0.0938,-0.35155 -0.25197,-0.65037 -0.47461,-0.89648 -0.22267,-0.2578 -0.52736,-0.45116 -0.91407,-0.58008 -0.375,-0.14061 -0.84961,-0.20506 -1.42382,-0.19336 -0.37501,0.0117 -0.74415,0.0762 -1.10743,0.19336 -0.36328,0.1172 -0.67969,0.28126 -0.94921,0.49219 -0.26954,0.21095 -0.48048,0.4629 -0.63282,0.75586 -0.15235,0.28126 -0.21094,0.59767 -0.17578,0.94921 0.0117,0.10549 -0.11133,0.22853 -0.36914,0.36915 -0.2461,0.12891 -0.54492,0.2461 -0.89648,0.35156 -0.33985,0.10548 -0.67969,0.18751 -1.01953,0.24609 -0.32813,0.0586 -0.56251,0.0703 -0.70313,0.0352 l -0.24609,-0.68555 c 0.26953,-0.58592 0.67968,-1.14842 1.23047,-1.6875 0.55077,-0.53905 1.17773,-1.01366 1.88086,-1.42383 0.71483,-0.41014 1.46483,-0.73826 2.25,-0.98437 0.79686,-0.24608 1.56444,-0.36913 2.30273,-0.36914 1.28905,1e-5 2.27928,0.33986 2.9707,1.01953 0.70311,0.66798 1.05468,1.60548 1.05469,2.8125 l 0,9.91406 c -1e-5,0.49219 0.0644,0.84375 0.19336,1.05469 0.12889,0.21094 0.29881,0.31641 0.50977,0.3164 0.16404,1e-5 0.37498,-0.0293 0.63281,-0.0879 0.2578,-0.0586 0.62108,-0.18749 1.08984,-0.38671 l 0.26367,0.79101 0,0"
         style=""
         id="path4995" />
      <path
         d="m 305.2341,485.39667 0,-8.05078 c -0.38673,-0.66796 -0.93165,-1.18358 -1.63477,-1.54688 -0.70313,-0.37498 -1.47657,-0.56248 -2.32031,-0.5625 -0.75001,2e-5 -1.43555,0.14064 -2.05664,0.42188 -0.6211,0.26954 -1.16016,0.6797 -1.61719,1.23046 -0.44531,0.5508 -0.79688,1.23635 -1.05468,2.05665 -0.2461,0.82032 -0.36915,1.78126 -0.36914,2.88281 -1e-5,0.9961 0.14062,1.89844 0.42187,2.70703 0.29296,0.8086 0.66211,1.5 1.10742,2.07422 0.44531,0.5625 0.93164,1.00195 1.45899,1.31836 0.53905,0.30469 1.04882,0.45703 1.52929,0.45703 0.39843,0 0.79101,-0.0762 1.17774,-0.22852 0.38671,-0.16406 0.76757,-0.37499 1.14258,-0.63281 0.3867,-0.26953 0.7617,-0.56836 1.125,-0.89648 0.36327,-0.33984 0.72655,-0.68555 1.08984,-1.03711 l 0,-0.19336 m 5.37891,3.30468 c -0.53908,0.36329 -1.01955,0.67383 -1.44141,0.93165 -0.41017,0.24609 -0.77345,0.44531 -1.08984,0.59765 -0.30471,0.16406 -0.56838,0.28125 -0.79102,0.35156 -0.22267,0.082 -0.41603,0.12305 -0.58008,0.12305 -0.38673,0 -0.70314,-0.26367 -0.94922,-0.79101 -0.2461,-0.52735 -0.41017,-1.42969 -0.49218,-2.70704 -0.44533,0.53907 -0.89064,1.0254 -1.33594,1.45899 -0.43361,0.43359 -0.88478,0.80273 -1.35352,1.10742 -0.45704,0.29297 -0.94337,0.52148 -1.45898,0.68555 -0.51563,0.16406 -1.07227,0.24609 -1.66992,0.24609 -0.65626,0 -1.33009,-0.1875 -2.02149,-0.5625 -0.69141,-0.38672 -1.33008,-0.9375 -1.91601,-1.65234 -0.57422,-0.71484 -1.04883,-1.58789 -1.42383,-2.61914 -0.36328,-1.03125 -0.54492,-2.19726 -0.54492,-3.49805 0,-0.66796 0.0879,-1.35937 0.26367,-2.07422 0.1875,-0.71483 0.45117,-1.40624 0.79101,-2.07422 0.33985,-0.66795 0.75586,-1.30077 1.24805,-1.89844 0.49218,-0.59764 1.04297,-1.11912 1.65235,-1.56445 0.60936,-0.45701 1.27733,-0.81444 2.0039,-1.07226 0.72656,-0.2578 1.49999,-0.38671 2.32031,-0.38672 0.55078,1e-5 1.0957,0.0703 1.63477,0.21093 0.55077,0.12893 1.14257,0.42776 1.77539,0.89649 l 0,-6.62695 c -1e-5,-0.64451 -0.0176,-1.15428 -0.0527,-1.5293 -0.0352,-0.3867 -0.13478,-0.67966 -0.29883,-0.87891 -0.16408,-0.21091 -0.41603,-0.35153 -0.75586,-0.42187 -0.33986,-0.082 -0.82033,-0.14646 -1.44141,-0.19336 l 0,-0.68555 c 0.96093,-0.12888 1.82226,-0.2988 2.58399,-0.50976 0.7617,-0.22263 1.44725,-0.43357 2.05664,-0.63282 l 0.54492,0.52735 0,22.2539 c -2e-5,0.41016 0.006,0.76173 0.0176,1.05469 0.0234,0.29297 0.0527,0.53907 0.0879,0.73828 0.0351,0.19922 0.0761,0.36329 0.12304,0.49219 0.0469,0.12891 0.10546,0.23438 0.17579,0.31641 0.10545,0.1289 0.30467,0.16992 0.59765,0.12304 0.30467,-0.0586 0.80858,-0.22265 1.51172,-0.49218 l 0.22852,0.75585 0,0"
         style=""
         id="path4997" />
      <path
         d="m 317.02902,488.4201 c 0.70312,1e-5 1.44726,-0.17577 2.23242,-0.52734 0.79687,-0.36328 1.64062,-0.93164 2.53125,-1.70508 l 0,-4.58789 -2.09179,0.4043 c -0.79689,0.14063 -1.48829,0.34571 -2.07422,0.61523 -0.57423,0.26954 -1.04884,0.58595 -1.42383,0.94922 -0.375,0.36329 -0.65039,0.76759 -0.82617,1.21289 -0.17579,0.4336 -0.26368,0.89063 -0.26367,1.3711 -10e-6,0.46875 0.0703,0.84961 0.21093,1.14257 0.14062,0.29298 0.31055,0.52735 0.50977,0.70313 0.21093,0.16406 0.42187,0.27539 0.63281,0.33398 0.22265,0.0586 0.41015,0.0879 0.5625,0.0879 m 10.08985,0.31641 c -0.99611,0.69141 -1.82228,1.18945 -2.47852,1.49414 -0.64454,0.31641 -1.13087,0.47461 -1.45898,0.47461 -0.38673,0 -0.709,-0.26953 -0.9668,-0.80859 -0.25782,-0.53906 -0.39845,-1.2832 -0.42188,-2.23242 -0.52735,0.52734 -1.05469,0.98437 -1.58203,1.37109 -0.52735,0.38672 -1.04297,0.70312 -1.54687,0.94922 -0.50392,0.24609 -0.98438,0.42773 -1.44141,0.54492 -0.44532,0.11719 -0.85547,0.17578 -1.23047,0.17578 -0.42188,0 -0.85547,-0.0703 -1.30078,-0.21094 -0.44531,-0.14062 -0.84961,-0.36328 -1.21289,-0.66797 -0.35156,-0.30468 -0.64453,-0.69726 -0.87891,-1.17773 -0.23437,-0.48047 -0.35156,-1.06054 -0.35156,-1.74023 0,-0.69141 0.12305,-1.34766 0.36914,-1.96875 0.25781,-0.63281 0.63281,-1.20703 1.125,-1.72266 0.50391,-0.51562 1.125,-0.96093 1.86328,-1.33594 0.73828,-0.38671 1.59961,-0.67968 2.58399,-0.8789 l 3.60351,-0.72071 0,-2.44336 c -10e-6,-0.39842 -0.0469,-0.76756 -0.14062,-1.10742 -0.0938,-0.35155 -0.25196,-0.65037 -0.47461,-0.89648 -0.22267,-0.2578 -0.52735,-0.45116 -0.91406,-0.58008 -0.37501,-0.14061 -0.84962,-0.20506 -1.42383,-0.19336 -0.37501,0.0117 -0.74415,0.0762 -1.10742,0.19336 -0.36329,0.1172 -0.6797,0.28126 -0.94922,0.49219 -0.26954,0.21095 -0.48048,0.4629 -0.63281,0.75586 -0.15235,0.28126 -0.21095,0.59767 -0.17579,0.94921 0.0117,0.10549 -0.11133,0.22853 -0.36914,0.36915 -0.24609,0.12891 -0.54492,0.2461 -0.89648,0.35156 -0.33985,0.10548 -0.67969,0.18751 -1.01953,0.24609 -0.32813,0.0586 -0.5625,0.0703 -0.70313,0.0352 l -0.24609,-0.68555 c 0.26953,-0.58592 0.67968,-1.14842 1.23047,-1.6875 0.55078,-0.53905 1.17773,-1.01366 1.88086,-1.42383 0.71484,-0.41014 1.46484,-0.73826 2.25,-0.98437 0.79686,-0.24608 1.56444,-0.36913 2.30273,-0.36914 1.28905,1e-5 2.27929,0.33986 2.97071,1.01953 0.70311,0.66798 1.05467,1.60548 1.05468,2.8125 l 0,9.91406 c -1e-5,0.49219 0.0644,0.84375 0.19336,1.05469 0.12889,0.21094 0.29882,0.31641 0.50977,0.3164 0.16405,1e-5 0.37498,-0.0293 0.63281,-0.0879 0.2578,-0.0586 0.62108,-0.18749 1.08984,-0.38671 l 0.26368,0.79101 0,0"
         style=""
         id="path4999" />
    </g>
    <g
       style="font-size:36px;font-style:normal;font-variant:normal;font-weight:normal;font-stretch:normal;fill:#000000;fill-opacity:1;stroke:none;font-family:Gentium;-inkscape-font-specification:Gentium"
       id="text3726">
      <path
         d="m 386.1561,868.70496 c -2e-5,0.52735 -0.0703,1.06641 -0.21094,1.61718 -0.14064,0.55079 -0.35744,1.09571 -0.65039,1.63477 -0.28127,0.52735 -0.63869,1.03125 -1.07227,1.51172 -0.42188,0.46875 -0.92579,0.87891 -1.51172,1.23047 -0.57423,0.35156 -1.23047,0.63281 -1.96875,0.84375 -0.72657,0.21093 -1.5293,0.3164 -2.4082,0.3164 -0.38672,0 -0.8086,-0.041 -1.26562,-0.12304 -0.45704,-0.082 -0.92579,-0.19922 -1.40625,-0.35157 -0.48048,-0.14062 -0.96094,-0.3164 -1.44141,-0.52734 -0.46875,-0.21094 -0.90821,-0.45117 -1.31836,-0.7207 -0.082,-0.0469 -0.14649,-0.2461 -0.19336,-0.59766 -0.0352,-0.35156 -0.0527,-0.76172 -0.0527,-1.23047 0,-0.48046 0.0176,-0.96679 0.0527,-1.45898 0.0352,-0.49219 0.0996,-0.89648 0.19336,-1.21289 l 0.7207,0.0879 c 0.26953,0.69141 0.60352,1.28906 1.00196,1.79297 0.41015,0.50391 0.86132,0.92578 1.35351,1.26562 0.49218,0.32813 1.01953,0.57422 1.58203,0.73828 0.57422,0.15235 1.16015,0.22852 1.75782,0.22852 0.52733,0 1.05467,-0.10547 1.58203,-0.31641 0.53905,-0.22265 1.02538,-0.52148 1.45898,-0.89648 0.43358,-0.375 0.78515,-0.80859 1.05469,-1.30078 0.26952,-0.50391 0.40428,-1.03711 0.4043,-1.59961 -2e-5,-0.71484 -0.15822,-1.33007 -0.47461,-1.84571 -0.31642,-0.51561 -0.73244,-0.97264 -1.24805,-1.37109 -0.51564,-0.39843 -1.10157,-0.75585 -1.75781,-1.07227 -0.65626,-0.31639 -1.33009,-0.6328 -2.02149,-0.94921 -0.67969,-0.3164 -1.34766,-0.65038 -2.0039,-1.00196 -0.65626,-0.35155 -1.24219,-0.7617 -1.75782,-1.23047 -0.51562,-0.46873 -0.93164,-1.00779 -1.24804,-1.61718 -0.31641,-0.62108 -0.47461,-1.35936 -0.47461,-2.21485 0,-0.36326 0.0527,-0.75584 0.1582,-1.17773 0.10547,-0.42186 0.27539,-0.84373 0.50977,-1.26563 0.23437,-0.42185 0.5332,-0.82615 0.89648,-1.21289 0.375,-0.39841 0.82031,-0.74412 1.33594,-1.03711 0.52734,-0.30466 1.13085,-0.5449 1.81055,-0.7207 0.67968,-0.17576 1.44725,-0.26365 2.30273,-0.26367 0.52733,2e-5 1.05468,0.041 1.58203,0.12304 0.53905,0.0821 1.0371,0.19339 1.49414,0.33399 0.46874,0.14065 0.89061,0.31057 1.26563,0.50976 0.37498,0.19925 0.66795,0.41604 0.8789,0.6504 0.082,0.0703 0.082,0.21095 0,0.42187 -0.0703,0.19924 -0.18751,0.4219 -0.35156,0.66797 -0.15236,0.23439 -0.32814,0.46877 -0.52734,0.70312 -0.18752,0.2344 -0.35158,0.41604 -0.49219,0.54493 l -0.63281,-0.10547 c -0.32814,-0.3867 -0.67384,-0.70897 -1.03711,-0.9668 -0.35158,-0.25779 -0.71486,-0.46287 -1.08985,-0.61523 -0.36329,-0.16405 -0.72657,-0.27537 -1.08984,-0.33399 -0.36329,-0.0703 -0.70899,-0.10545 -1.03711,-0.10547 -0.65626,2e-5 -1.21876,0.0938 -1.6875,0.28125 -0.46875,0.18752 -0.85547,0.43362 -1.16016,0.73828 -0.30469,0.29299 -0.5332,0.62112 -0.68554,0.98438 -0.14063,0.35158 -0.21094,0.69142 -0.21094,1.01953 0,0.5508 0.1582,1.04299 0.47461,1.47656 0.3164,0.42189 0.73242,0.81447 1.24805,1.17774 0.52733,0.35157 1.11913,0.68556 1.77539,1.00195 0.66796,0.31642 1.34764,0.6504 2.03906,1.00195 0.70311,0.33986 1.3828,0.709 2.03906,1.10743 0.66796,0.39844 1.25975,0.85548 1.77539,1.37109 0.52733,0.51563 0.94921,1.10743 1.26563,1.77539 0.31639,0.65626 0.47459,1.41798 0.47461,2.28516"
         style=""
         id="path4959" />
      <path
         d="m 393.94321,873.5741 c 0.70311,0 1.44725,-0.17578 2.23242,-0.52735 0.79686,-0.36328 1.64061,-0.93163 2.53125,-1.70508 l 0,-4.58789 -2.0918,0.4043 c -0.79688,0.14063 -1.48829,0.34571 -2.07422,0.61524 -0.57422,0.26953 -1.04883,0.58594 -1.42383,0.94921 -0.375,0.36329 -0.65039,0.76759 -0.82617,1.21289 -0.17578,0.4336 -0.26367,0.89063 -0.26367,1.3711 0,0.46875 0.0703,0.84961 0.21094,1.14258 0.14062,0.29297 0.31054,0.52734 0.50976,0.70312 0.21094,0.16407 0.42187,0.27539 0.63282,0.33399 0.22265,0.0586 0.41015,0.0879 0.5625,0.0879 m 10.08984,0.3164 c -0.99611,0.69141 -1.82228,1.18946 -2.47852,1.49414 -0.64454,0.31641 -1.13087,0.47461 -1.45898,0.47461 -0.38673,0 -0.709,-0.26953 -0.9668,-0.80859 -0.25782,-0.53906 -0.39844,-1.2832 -0.42187,-2.23242 -0.52736,0.52734 -1.0547,0.98437 -1.58203,1.37109 -0.52736,0.38672 -1.04298,0.70313 -1.54688,0.94922 -0.50391,0.24609 -0.98438,0.42773 -1.4414,0.54492 -0.44532,0.11719 -0.85548,0.17578 -1.23047,0.17578 -0.42188,0 -0.85548,-0.0703 -1.30078,-0.21093 -0.44532,-0.14063 -0.84962,-0.36329 -1.21289,-0.66797 -0.35157,-0.30469 -0.64454,-0.69727 -0.87891,-1.17774 -0.23438,-0.48046 -0.35156,-1.06054 -0.35156,-1.74023 0,-0.6914 0.12304,-1.34765 0.36914,-1.96875 0.25781,-0.63281 0.63281,-1.20703 1.125,-1.72266 0.5039,-0.51562 1.12499,-0.96093 1.86328,-1.33594 0.73827,-0.38671 1.5996,-0.67967 2.58398,-0.8789 l 3.60352,-0.72071 0,-2.44335 c -1e-5,-0.39843 -0.0469,-0.76757 -0.14063,-1.10743 -0.0938,-0.35155 -0.25196,-0.65037 -0.47461,-0.89648 -0.22266,-0.2578 -0.52735,-0.45116 -0.91406,-0.58008 -0.37501,-0.14061 -0.84962,-0.20506 -1.42383,-0.19336 -0.375,0.0117 -0.74414,0.0762 -1.10742,0.19336 -0.36329,0.1172 -0.67969,0.28127 -0.94922,0.49219 -0.26953,0.21095 -0.48047,0.4629 -0.63281,0.75586 -0.15235,0.28126 -0.21094,0.59767 -0.17578,0.94922 0.0117,0.10548 -0.11133,0.22852 -0.36914,0.36914 -0.2461,0.12892 -0.54493,0.2461 -0.89649,0.35156 -0.33984,0.10548 -0.67969,0.18751 -1.01953,0.24609 -0.32812,0.0586 -0.5625,0.0703 -0.70312,0.0352 l -0.2461,-0.68555 c 0.26953,-0.58592 0.67969,-1.14842 1.23047,-1.6875 0.55078,-0.53904 1.17773,-1.01365 1.88086,-1.42383 0.71484,-0.41014 1.46484,-0.73826 2.25,-0.98437 0.79687,-0.24608 1.56445,-0.36912 2.30274,-0.36914 1.28905,2e-5 2.27928,0.33986 2.9707,1.01953 0.70311,0.66798 1.05467,1.60548 1.05469,2.8125 l 0,9.91406 c -2e-5,0.49219 0.0644,0.84376 0.19336,1.05469 0.12889,0.21094 0.29881,0.31641 0.50976,0.31641 0.16405,0 0.37499,-0.0293 0.63281,-0.0879 0.2578,-0.0586 0.62108,-0.1875 1.08985,-0.38672 l 0.26367,0.79101 0,0"
         style=""
         id="path4961" />
      <path
         d="m 405.33383,875.33191 0,-0.75586 c 0.50391,-0.082 0.92578,-0.16406 1.26563,-0.24609 0.33984,-0.0937 0.60937,-0.18164 0.80859,-0.26368 0.19922,-0.0937 0.33984,-0.18749 0.42188,-0.28125 0.0937,-0.0937 0.14062,-0.18749 0.14062,-0.28125 l 0,-20.95312 c 0,-0.52732 -0.0352,-0.93748 -0.10547,-1.23047 -0.0703,-0.29294 -0.19922,-0.50974 -0.38672,-0.65039 -0.1875,-0.15232 -0.43945,-0.25193 -0.75586,-0.29883 -0.3164,-0.0586 -0.7207,-0.11716 -1.21289,-0.17578 l 0,-0.70312 c 0.84375,-0.16404 1.61719,-0.34568 2.32032,-0.54493 0.70312,-0.19919 1.41796,-0.4863 2.14453,-0.86132 l 0.63281,0.59765 0,24.82031 c -1e-5,0.17579 0.19921,0.35743 0.59766,0.54493 0.39843,0.1875 1.07811,0.36328 2.03906,0.52734 l 0,0.75586 -7.91016,0"
         style=""
         id="path4963" />
      <path
         d="m 420.90805,853.16589 c -10e-6,0.32815 -0.0527,0.6387 -0.1582,0.93164 -0.10548,0.29299 -0.25196,0.55081 -0.43946,0.77344 -0.17578,0.21096 -0.38672,0.38088 -0.63281,0.50977 -0.2461,0.12892 -0.51563,0.19338 -0.80859,0.19336 -0.52735,2e-5 -0.90821,-0.14647 -1.14258,-0.43946 -0.22266,-0.29294 -0.33399,-0.70896 -0.33398,-1.24804 -10e-6,-0.32811 0.0527,-0.63865 0.1582,-0.93164 0.10546,-0.29295 0.25195,-0.5449 0.43945,-0.75586 0.1875,-0.22264 0.39843,-0.39256 0.63281,-0.50977 0.24609,-0.12888 0.50976,-0.19333 0.79102,-0.19336 0.99609,3e-5 1.49413,0.55667 1.49414,1.66992 m -5.625,22.16602 0,-0.75586 c 0.79687,-0.16406 1.40625,-0.33984 1.82813,-0.52734 0.42187,-0.19922 0.6328,-0.38086 0.63281,-0.54493 l 0,-9.94921 c -10e-6,-0.59765 -0.0117,-1.07812 -0.0352,-1.44141 -0.0234,-0.37499 -0.11133,-0.6621 -0.26367,-0.86133 -0.15235,-0.21092 -0.39844,-0.36327 -0.73828,-0.45703 -0.32813,-0.0937 -0.80274,-0.16991 -1.42383,-0.22852 l 0,-0.70312 c 0.36328,-0.0703 0.74414,-0.15233 1.14258,-0.24609 0.41015,-0.10546 0.81445,-0.21679 1.21289,-0.33399 0.39843,-0.12889 0.77929,-0.26365 1.14258,-0.4043 0.36327,-0.1406 0.69726,-0.28123 1.00195,-0.42187 l 0.59766,0 0,15.04687 c -1e-5,0.14063 0.19335,0.31641 0.58007,0.52735 0.39844,0.19922 1.02539,0.38086 1.88086,0.54492 l 0,0.75586 -7.55859,0"
         style=""
         id="path4965" />
      <path
         d="m 436.92172,870.55066 0,-8.05078 c -0.38673,-0.66796 -0.93165,-1.18358 -1.63476,-1.54688 -0.70314,-0.37498 -1.47658,-0.56248 -2.32032,-0.5625 -0.75,2e-5 -1.43555,0.14064 -2.05664,0.42188 -0.6211,0.26954 -1.16016,0.6797 -1.61718,1.23047 -0.44532,0.55079 -0.79688,1.23634 -1.05469,2.05664 -0.2461,0.82032 -0.36915,1.78126 -0.36914,2.88281 -10e-6,0.9961 0.14062,1.89844 0.42187,2.70703 0.29297,0.8086 0.66211,1.50001 1.10742,2.07422 0.44531,0.5625 0.93164,1.00196 1.45899,1.31836 0.53905,0.30469 1.04882,0.45703 1.5293,0.45703 0.39842,0 0.791,-0.0762 1.17773,-0.22852 0.38671,-0.16406 0.76757,-0.37499 1.14258,-0.63281 0.38671,-0.26953 0.76171,-0.56835 1.125,-0.89648 0.36327,-0.33984 0.72655,-0.68554 1.08984,-1.03711 l 0,-0.19336 m 5.37891,3.30469 c -0.53908,0.36328 -1.01955,0.67383 -1.44141,0.93164 -0.41017,0.24609 -0.77345,0.44531 -1.08984,0.59765 -0.3047,0.16407 -0.56838,0.28125 -0.79102,0.35157 -0.22267,0.082 -0.41603,0.12304 -0.58008,0.12304 -0.38673,0 -0.70313,-0.26367 -0.94921,-0.79101 -0.24611,-0.52735 -0.41017,-1.42969 -0.49219,-2.70703 -0.44533,0.53906 -0.89064,1.02539 -1.33594,1.45898 -0.4336,0.4336 -0.88478,0.80274 -1.35351,1.10742 -0.45705,0.29297 -0.94337,0.52149 -1.45899,0.68555 -0.51563,0.16406 -1.07227,0.24609 -1.66992,0.24609 -0.65626,0 -1.33008,-0.1875 -2.02149,-0.5625 -0.69141,-0.38672 -1.33008,-0.9375 -1.91601,-1.65234 -0.57422,-0.71484 -1.04883,-1.58789 -1.42383,-2.61914 -0.36328,-1.03125 -0.54492,-2.19726 -0.54492,-3.49805 0,-0.66796 0.0879,-1.35936 0.26367,-2.07422 0.1875,-0.71483 0.45117,-1.40624 0.79102,-2.07422 0.33984,-0.66795 0.75585,-1.30076 1.24804,-1.89843 0.49219,-0.59765 1.04297,-1.11913 1.65235,-1.56446 0.60937,-0.45701 1.27733,-0.81443 2.0039,-1.07226 0.72656,-0.2578 1.49999,-0.3867 2.32032,-0.38672 0.55077,2e-5 1.09569,0.0703 1.63476,0.21094 0.55077,0.12892 1.14257,0.42775 1.77539,0.89648 l 0,-6.62695 c -10e-6,-0.64451 -0.0176,-1.15428 -0.0527,-1.5293 -0.0352,-0.38669 -0.13478,-0.67966 -0.29883,-0.87891 -0.16408,-0.21091 -0.41603,-0.35153 -0.75586,-0.42187 -0.33985,-0.082 -0.82032,-0.14646 -1.44141,-0.19336 l 0,-0.68555 c 0.96093,-0.12888 1.82226,-0.2988 2.58399,-0.50976 0.7617,-0.22263 1.44725,-0.43357 2.05664,-0.63281 l 0.54492,0.52734 0,22.25391 c -1e-5,0.41016 0.006,0.76172 0.0176,1.05468 0.0234,0.29297 0.0527,0.53907 0.0879,0.73828 0.0351,0.19923 0.0762,0.36329 0.12305,0.49219 0.0469,0.12891 0.10545,0.23438 0.17578,0.31641 0.10545,0.12891 0.30467,0.16992 0.59765,0.12304 0.30467,-0.0586 0.80858,-0.22265 1.51172,-0.49218 l 0.22852,0.75586 0,0"
         style=""
         id="path4967" />
      <path
         d="m 448.71664,873.5741 c 0.70312,0 1.44726,-0.17578 2.23243,-0.52735 0.79686,-0.36328 1.64061,-0.93163 2.53125,-1.70508 l 0,-4.58789 -2.0918,0.4043 c -0.79688,0.14063 -1.48829,0.34571 -2.07422,0.61524 -0.57422,0.26953 -1.04883,0.58594 -1.42383,0.94921 -0.375,0.36329 -0.65039,0.76759 -0.82617,1.21289 -0.17579,0.4336 -0.26368,0.89063 -0.26367,1.3711 -1e-5,0.46875 0.0703,0.84961 0.21094,1.14258 0.14062,0.29297 0.31054,0.52734 0.50976,0.70312 0.21093,0.16407 0.42187,0.27539 0.63281,0.33399 0.22265,0.0586 0.41015,0.0879 0.5625,0.0879 m 10.08985,0.3164 c -0.99611,0.69141 -1.82228,1.18946 -2.47852,1.49414 -0.64454,0.31641 -1.13087,0.47461 -1.45898,0.47461 -0.38673,0 -0.709,-0.26953 -0.9668,-0.80859 -0.25782,-0.53906 -0.39845,-1.2832 -0.42187,-2.23242 -0.52736,0.52734 -1.0547,0.98437 -1.58204,1.37109 -0.52735,0.38672 -1.04297,0.70313 -1.54687,0.94922 -0.50391,0.24609 -0.98438,0.42773 -1.44141,0.54492 -0.44531,0.11719 -0.85547,0.17578 -1.23047,0.17578 -0.42187,0 -0.85547,-0.0703 -1.30078,-0.21093 -0.44531,-0.14063 -0.84961,-0.36329 -1.21289,-0.66797 -0.35156,-0.30469 -0.64453,-0.69727 -0.8789,-1.17774 -0.23438,-0.48046 -0.35157,-1.06054 -0.35157,-1.74023 0,-0.6914 0.12305,-1.34765 0.36914,-1.96875 0.25782,-0.63281 0.63282,-1.20703 1.125,-1.72266 0.50391,-0.51562 1.125,-0.96093 1.86329,-1.33594 0.73827,-0.38671 1.5996,-0.67967 2.58398,-0.8789 l 3.60352,-0.72071 0,-2.44335 c -1e-5,-0.39843 -0.0469,-0.76757 -0.14063,-1.10743 -0.0938,-0.35155 -0.25196,-0.65037 -0.47461,-0.89648 -0.22266,-0.2578 -0.52735,-0.45116 -0.91406,-0.58008 -0.37501,-0.14061 -0.84962,-0.20506 -1.42383,-0.19336 -0.37501,0.0117 -0.74415,0.0762 -1.10742,0.19336 -0.36329,0.1172 -0.67969,0.28127 -0.94922,0.49219 -0.26954,0.21095 -0.48047,0.4629 -0.63281,0.75586 -0.15235,0.28126 -0.21094,0.59767 -0.17578,0.94922 0.0117,0.10548 -0.11134,0.22852 -0.36914,0.36914 -0.2461,0.12892 -0.54493,0.2461 -0.89649,0.35156 -0.33985,0.10548 -0.67969,0.18751 -1.01953,0.24609 -0.32813,0.0586 -0.5625,0.0703 -0.70312,0.0352 l -0.2461,-0.68555 c 0.26953,-0.58592 0.67969,-1.14842 1.23047,-1.6875 0.55078,-0.53904 1.17773,-1.01365 1.88086,-1.42383 0.71484,-0.41014 1.46484,-0.73826 2.25,-0.98437 0.79687,-0.24608 1.56444,-0.36912 2.30273,-0.36914 1.28906,2e-5 2.27929,0.33986 2.97071,1.01953 0.70311,0.66798 1.05467,1.60548 1.05468,2.8125 l 0,9.91406 c -10e-6,0.49219 0.0644,0.84376 0.19336,1.05469 0.1289,0.21094 0.29882,0.31641 0.50977,0.31641 0.16405,0 0.37499,-0.0293 0.63281,-0.0879 0.2578,-0.0586 0.62108,-0.1875 1.08985,-0.38672 l 0.26367,0.79101 0,0"
         style=""
         id="path4969" />
    </g>
    <path
       style="fill:none;stroke:#000000;stroke-width:5;stroke-linecap:round;stroke-linejoin:miter;stroke-miterlimit:4;stroke-opacity:1;stroke-dasharray:none;marker-end:url(#Arrow2Mend)"
       d="m 415.68327,773.72165 0,53.70755"
       id="path3733-8" />
    <path
       style="fill:none;stroke:#000000;stroke-width:5;stroke-linecap:round;stroke-linejoin:miter;stroke-miterlimit:4;stroke-opacity:1;stroke-dasharray:none;marker-end:url(#Arrow2Mend)"
       d="m 269.73099,509.27484 0,53.70755"
       id="path3733-8-6" />
    <g
       style="font-size:36px;font-style:normal;font-variant:normal;font-weight:normal;font-stretch:normal;fill:#000000;fill-opacity:1;stroke:none;font-family:Gentium;-inkscape-font-specification:Gentium"
       id="text4849">
      <path
         d="m 282.70923,685.04077 0,-0.75586 c 0.79687,-0.16406 1.41796,-0.33984 1.86328,-0.52734 0.45703,-0.19922 0.68554,-0.38086 0.68555,-0.54492 l 0,-18.47461 c -10e-6,-0.14061 -0.2168,-0.31639 -0.65039,-0.52735 -0.42188,-0.21091 -1.05469,-0.39841 -1.89844,-0.5625 l 0,-0.75586 14.34375,0 0.54492,0.43946 c -0.0117,0.30471 -0.041,0.63869 -0.0879,1.00195 -0.0469,0.3633 -0.10548,0.72658 -0.17578,1.08984 -0.0586,0.3633 -0.12892,0.70901 -0.21094,1.03711 -0.0703,0.32815 -0.14064,0.60354 -0.21094,0.82618 l -0.82617,0 c -0.0235,-0.53905 -0.0703,-0.99022 -0.14062,-1.35352 -0.0586,-0.36326 -0.15236,-0.65037 -0.28125,-0.86133 -0.1172,-0.22263 -0.26369,-0.37498 -0.43946,-0.45703 -0.16407,-0.0937 -0.35743,-0.1406 -0.58007,-0.14062 l -6.57422,0 0,7.64648 6.57422,0 0.50976,0.49219 c -0.10548,0.16407 -0.22853,0.33985 -0.36914,0.52734 -0.14064,0.17579 -0.28712,0.35157 -0.43945,0.52734 -0.15236,0.16408 -0.3047,0.32228 -0.45703,0.47461 -0.14064,0.14064 -0.26955,0.25783 -0.38672,0.35157 -0.1758,-0.17577 -0.3633,-0.32226 -0.5625,-0.43946 -0.19923,-0.11717 -0.43361,-0.21678 -0.70313,-0.29882 -0.25782,-0.082 -0.56837,-0.14062 -0.93164,-0.17579 -0.35157,-0.0351 -0.77344,-0.0527 -1.26562,-0.0527 l -1.96875,0 0,9.68555 c -10e-6,0.14062 0.22265,0.29883 0.66797,0.47461 0.45702,0.17578 1.25975,0.375 2.4082,0.59765 l 0,0.75586 -8.4375,0"
         style=""
         id="path4972" />
      <path
         d="m 317.8479,683.59937 c -0.43361,0.28125 -0.84963,0.54492 -1.24805,0.79101 -0.39845,0.23438 -0.76759,0.43945 -1.10742,0.61524 -0.33986,0.17578 -0.63869,0.31054 -0.89648,0.40429 -0.25783,0.10547 -0.45705,0.1582 -0.59766,0.15821 -0.41017,-10e-6 -0.74415,-0.26954 -1.00195,-0.8086 -0.25783,-0.55078 -0.42189,-1.42968 -0.49219,-2.63672 -0.72657,0.72657 -1.39454,1.31836 -2.00391,1.77539 -0.59766,0.44532 -1.1543,0.79102 -1.66992,1.03711 -0.50391,0.2461 -0.97266,0.41016 -1.40625,0.49219 -0.42188,0.0937 -0.82032,0.14062 -1.19531,0.14063 -0.55079,-10e-6 -1.07813,-0.0762 -1.58203,-0.22852 -0.50391,-0.15234 -0.94922,-0.42773 -1.33594,-0.82617 -0.38672,-0.41016 -0.69727,-0.9668 -0.93164,-1.66992 -0.22266,-0.70313 -0.33399,-1.60547 -0.33398,-2.70704 l 0,-7.59375 c -10e-6,-0.56248 -0.0176,-0.99608 -0.0527,-1.30078 -0.0352,-0.31639 -0.12891,-0.55076 -0.28125,-0.70312 -0.14063,-0.16405 -0.36328,-0.27538 -0.66797,-0.33399 -0.30469,-0.0586 -0.72656,-0.11717 -1.26562,-0.17578 l 0,-0.70312 c 0.42187,-0.0469 0.81445,-0.10546 1.17773,-0.17578 0.375,-0.0703 0.73242,-0.15233 1.07227,-0.2461 0.35156,-0.0937 0.70312,-0.1992 1.05469,-0.3164 0.35155,-0.12889 0.72069,-0.26952 1.10742,-0.42188 l 0.49218,0.68555 0,10.31836 c 0,0.82032 0.0586,1.50586 0.17579,2.05664 0.1289,0.55078 0.30468,0.99024 0.52734,1.31836 0.23437,0.32812 0.51562,0.5625 0.84375,0.70312 0.33984,0.14063 0.72069,0.21094 1.14258,0.21094 0.37499,0 0.75585,-0.0527 1.14258,-0.1582 0.39842,-0.11719 0.80272,-0.29297 1.21289,-0.52735 0.42186,-0.24609 0.86131,-0.55663 1.31836,-0.93164 0.45701,-0.38671 0.94334,-0.85546 1.45898,-1.40625 l 0,-7.89258 c -10e-6,-0.52733 -0.0293,-0.9492 -0.0879,-1.26562 -0.0469,-0.31639 -0.15822,-0.56249 -0.33398,-0.73828 -0.1758,-0.17577 -0.42775,-0.29881 -0.75586,-0.36914 -0.31642,-0.0703 -0.74416,-0.11717 -1.28321,-0.14063 l 0,-0.70312 c 0.84374,-0.10546 1.65233,-0.26952 2.42578,-0.49219 0.77343,-0.22264 1.48827,-0.4453 2.14454,-0.66797 l 0.52734,0.68555 0,11.72461 c -2e-5,0.72656 0.0234,1.31836 0.0703,1.77539 0.0586,0.45703 0.16991,0.74414 0.33399,0.86133 0.1406,0.0937 0.38084,0.11719 0.7207,0.0703 0.33983,-0.0586 0.80857,-0.2168 1.40625,-0.47461 l 0.17578,0.79102 0,0"
         style=""
         id="path4974" />
      <path
         d="m 329.88892,685.04077 0,-0.75586 c 0.84373,-0.22265 1.46483,-0.41601 1.86328,-0.58008 0.39842,-0.16406 0.59764,-0.32812 0.59765,-0.49218 l 0,-9.29883 c -1e-5,-0.71483 -0.041,-1.29491 -0.12304,-1.74024 -0.082,-0.4453 -0.21095,-0.79686 -0.38672,-1.05468 -0.1758,-0.2578 -0.41017,-0.43358 -0.70313,-0.52735 -0.28126,-0.0937 -0.62696,-0.14061 -1.03711,-0.14062 -0.36329,10e-6 -0.76759,0.0879 -1.21289,0.26367 -0.44532,0.1758 -0.92579,0.45704 -1.4414,0.84375 -0.50392,0.38673 -1.03712,0.8965 -1.59961,1.5293 -0.55079,0.6211 -1.10743,1.38868 -1.66992,2.30273 l 0,7.82227 c -1e-5,0.17578 0.21679,0.35742 0.65039,0.54492 0.4453,0.1875 1.04882,0.36328 1.81054,0.52734 l 0,0.75586 -7.55859,0 0,-0.75586 c 0.77343,-0.19922 1.37695,-0.375 1.81055,-0.52734 0.43359,-0.16406 0.65038,-0.3457 0.65039,-0.54492 l 0,-10.66993 c -10e-6,-0.45701 -0.0176,-0.82029 -0.0527,-1.08984 -0.0352,-0.26952 -0.13477,-0.48045 -0.29883,-0.63281 -0.15234,-0.15233 -0.39258,-0.26366 -0.7207,-0.33399 -0.32813,-0.0703 -0.79102,-0.14061 -1.38867,-0.21093 l 0,-0.70313 c 0.79687,-0.12889 1.53515,-0.31053 2.21484,-0.54492 0.67969,-0.24608 1.34765,-0.53319 2.00391,-0.86133 l 0.61523,0.61524 0.19336,4.37695 c 0.51562,-0.78514 1.08398,-1.48241 1.70508,-2.0918 0.62109,-0.62108 1.24804,-1.14256 1.88086,-1.56445 0.6328,-0.43358 1.24218,-0.7617 1.82813,-0.98438 0.59764,-0.23435 1.12498,-0.35154 1.58203,-0.35156 0.50389,2e-5 0.99022,0.0762 1.45898,0.22852 0.46874,0.15236 0.87889,0.38673 1.23047,0.70312 0.36326,0.31642 0.65037,0.72072 0.86133,1.21289 0.22264,0.48049 0.33397,1.04884 0.33398,1.70508 l 0,11.19727 c -10e-6,0.16406 0.17577,0.32812 0.52735,0.49218 0.36326,0.15235 1.00779,0.34571 1.93359,0.58008 l 0,0.75586 -7.55859,0"
         style=""
         id="path4976" />
      <path
         d="m 352.77563,681.70093 c -0.76173,0.90234 -1.43556,1.61133 -2.02148,2.12695 -0.57423,0.50391 -1.10743,0.89063 -1.59961,1.16016 -0.4922,0.25781 -0.97267,0.41601 -1.44141,0.47461 -0.46875,0.0703 -0.97852,0.10546 -1.52929,0.10547 -0.85548,-10e-6 -1.69337,-0.18751 -2.51367,-0.5625 -0.8086,-0.38672 -1.5293,-0.9375 -2.16211,-1.65235 -0.63282,-0.71484 -1.14258,-1.58789 -1.5293,-2.61914 -0.375,-1.03124 -0.5625,-2.19726 -0.5625,-3.49805 0,-1.26561 0.22851,-2.4492 0.68555,-3.55078 0.46874,-1.10155 1.10156,-2.05662 1.89843,-2.86523 0.80859,-0.8203 1.75781,-1.46483 2.84766,-1.9336 1.08984,-0.48045 2.26757,-0.72068 3.5332,-0.7207 0.38671,2e-5 0.77929,0.0352 1.17774,0.10547 0.41014,0.0586 0.79686,0.15236 1.16015,0.28125 0.37499,0.1172 0.71483,0.26369 1.01954,0.43945 0.31639,0.16408 0.5742,0.35158 0.77343,0.5625 0.0234,0.14064 0.006,0.33986 -0.0527,0.59766 -0.0586,0.25783 -0.14064,0.53322 -0.2461,0.82617 -0.10548,0.28127 -0.22267,0.55666 -0.35156,0.82617 -0.12892,0.25783 -0.24611,0.46877 -0.35156,0.63282 l -0.65039,-0.17579 c -0.0938,-0.21092 -0.24611,-0.43944 -0.45703,-0.68554 -0.21095,-0.24608 -0.48634,-0.48046 -0.82617,-0.70313 -0.32814,-0.22264 -0.72658,-0.40428 -1.19532,-0.54492 -0.45704,-0.15233 -0.98438,-0.2285 -1.58203,-0.22851 -0.6211,10e-6 -1.21876,0.14064 -1.79297,0.42187 -0.5625,0.26955 -1.06641,0.6797 -1.51172,1.23047 -0.43359,0.55079 -0.78516,1.23634 -1.05468,2.05664 -0.25782,0.82032 -0.38673,1.78126 -0.38672,2.88281 -10e-6,0.9961 0.14648,1.89845 0.43945,2.70703 0.30468,0.8086 0.70312,1.50001 1.19531,2.07422 0.5039,0.56251 1.07812,1.00196 1.72266,1.31836 0.65624,0.30469 1.33593,0.45703 2.03906,0.45703 0.32812,0 0.63281,-0.0117 0.91407,-0.0351 0.28123,-0.0352 0.58592,-0.12305 0.91406,-0.26368 0.33983,-0.14062 0.72655,-0.36327 1.16015,-0.66796 0.4453,-0.30469 0.99608,-0.73828 1.65235,-1.30079 l 0.68554,0.72071 0,0"
         style=""
         id="path4978" />
      <path
         d="m 360.61548,662.87476 c -10e-6,0.32814 -0.0527,0.63869 -0.1582,0.93164 -0.10548,0.29299 -0.25196,0.5508 -0.43946,0.77343 -0.17579,0.21096 -0.38672,0.38088 -0.63281,0.50977 -0.2461,0.12893 -0.51563,0.19338 -0.80859,0.19336 -0.52735,2e-5 -0.90821,-0.14647 -1.14258,-0.43945 -0.22266,-0.29295 -0.33399,-0.70897 -0.33399,-1.24805 0,-0.3281 0.0527,-0.63865 0.15821,-0.93164 0.10546,-0.29295 0.25195,-0.5449 0.43945,-0.75586 0.1875,-0.22263 0.39843,-0.39256 0.63281,-0.50977 0.24609,-0.12888 0.50976,-0.19333 0.79102,-0.19336 0.99609,3e-5 1.49413,0.55667 1.49414,1.66993 m -5.625,22.16601 0,-0.75586 c 0.79687,-0.16406 1.40625,-0.33984 1.82812,-0.52734 0.42188,-0.19922 0.63281,-0.38086 0.63282,-0.54492 l 0,-9.94922 c -10e-6,-0.59765 -0.0117,-1.07811 -0.0352,-1.44141 -0.0234,-0.37498 -0.11133,-0.66209 -0.26367,-0.86133 -0.15235,-0.21092 -0.39844,-0.36326 -0.73828,-0.45703 -0.32813,-0.0937 -0.80274,-0.16991 -1.42383,-0.22851 l 0,-0.70313 c 0.36328,-0.0703 0.74414,-0.15233 1.14258,-0.24609 0.41015,-0.10546 0.81445,-0.21678 1.21289,-0.33399 0.39843,-0.12889 0.77929,-0.26365 1.14258,-0.40429 0.36327,-0.14061 0.69726,-0.28124 1.00195,-0.42188 l 0.59765,0 0,15.04688 c 0,0.14062 0.19336,0.3164 0.58008,0.52734 0.39843,0.19922 1.02539,0.38086 1.88086,0.54492 l 0,0.75586 -7.55859,0"
         style=""
         id="path4980" />
      <path
         d="m 377.54321,677.04272 c -10e-6,-0.92577 -0.15235,-1.80467 -0.45703,-2.63671 -0.3047,-0.84374 -0.70314,-1.58202 -1.19531,-2.21485 -0.4922,-0.64452 -1.04298,-1.15428 -1.65234,-1.52929 -0.60939,-0.37499 -1.2129,-0.56249 -1.81055,-0.5625 -0.89063,10e-6 -1.64063,0.16993 -2.25,0.50976 -0.60938,0.33986 -1.10743,0.80861 -1.49414,1.40625 -0.37501,0.58595 -0.64454,1.28322 -0.8086,2.0918 -0.16406,0.8086 -0.24609,1.68165 -0.24609,2.61914 0,0.92579 0.16406,1.81055 0.49219,2.6543 0.32812,0.83203 0.74413,1.56445 1.24804,2.19726 0.5039,0.63282 1.05469,1.13672 1.65235,1.51172 0.60937,0.36328 1.18358,0.54492 1.72265,0.54492 0.83203,0 1.54687,-0.15234 2.14454,-0.45703 0.60936,-0.3164 1.10741,-0.76172 1.49414,-1.33594 0.39842,-0.57421 0.69139,-1.26562 0.8789,-2.07422 0.18749,-0.80858 0.28124,-1.71679 0.28125,-2.72461 m 2.68946,-0.52734 c -2e-5,0.77345 -0.0996,1.54102 -0.29883,2.30274 -0.19924,0.75 -0.47463,1.45898 -0.82617,2.12695 -0.35158,0.66797 -0.77346,1.28906 -1.26563,1.86328 -0.4922,0.5625 -1.03712,1.04883 -1.63476,1.45898 -0.58595,0.41016 -1.21291,0.72657 -1.88086,0.94922 -0.66798,0.23438 -1.35939,0.35156 -2.07422,0.35157 -1.11329,-10e-6 -2.1211,-0.21094 -3.02344,-0.63282 -0.89063,-0.42187 -1.65821,-1.00195 -2.30273,-1.74023 -0.63282,-0.73828 -1.12501,-1.61719 -1.47657,-2.63672 -0.33984,-1.01953 -0.50976,-2.12695 -0.50976,-3.32227 0,-0.77342 0.0937,-1.53514 0.28125,-2.28515 0.19921,-0.74999 0.46875,-1.45898 0.80859,-2.12696 0.35156,-0.67967 0.76758,-1.30076 1.24805,-1.86328 0.49218,-0.5742 1.03124,-1.06639 1.61719,-1.47656 0.59765,-0.41014 1.23632,-0.7324 1.91601,-0.9668 0.67968,-0.23435 1.38866,-0.35154 2.12695,-0.35156 1.10156,2e-5 2.09765,0.21096 2.98829,0.63281 0.90233,0.42189 1.6699,1.00783 2.30273,1.75782 0.64452,0.73829 1.1367,1.6172 1.47656,2.63672 0.35155,1.01954 0.52733,2.12696 0.52735,3.32226 m -8.05079,-9.87891 c -0.21094,-0.0351 -0.39844,-0.0996 -0.5625,-0.19335 -0.16407,-0.0937 -0.31055,-0.19335 -0.43945,-0.29883 l 4.11328,-7.27735 c 0.14062,0.0118 0.32226,0.0352 0.54492,0.0703 0.23437,0.0235 0.4746,0.0528 0.72071,0.0879 0.2578,0.0352 0.50389,0.0762 0.73828,0.12304 0.23436,0.0469 0.416,0.0879 0.54492,0.12305 l 0.4043,0.68555 -6.06446,6.67968"
         style=""
         id="path4982" />
      <path
         d="m 393.45142,685.04077 0,-0.75586 c 0.84373,-0.22265 1.46483,-0.41601 1.86328,-0.58008 0.39842,-0.16406 0.59764,-0.32812 0.59765,-0.49218 l 0,-9.29883 c -1e-5,-0.71483 -0.041,-1.29491 -0.12304,-1.74024 -0.082,-0.4453 -0.21095,-0.79686 -0.38672,-1.05468 -0.1758,-0.2578 -0.41017,-0.43358 -0.70313,-0.52735 -0.28126,-0.0937 -0.62696,-0.14061 -1.03711,-0.14062 -0.36329,10e-6 -0.76759,0.0879 -1.21289,0.26367 -0.44532,0.1758 -0.92579,0.45704 -1.4414,0.84375 -0.50392,0.38673 -1.03712,0.8965 -1.59961,1.5293 -0.55079,0.6211 -1.10743,1.38868 -1.66992,2.30273 l 0,7.82227 c -1e-5,0.17578 0.21679,0.35742 0.65039,0.54492 0.4453,0.1875 1.04882,0.36328 1.81054,0.52734 l 0,0.75586 -7.55859,0 0,-0.75586 c 0.77343,-0.19922 1.37695,-0.375 1.81055,-0.52734 0.43359,-0.16406 0.65038,-0.3457 0.65039,-0.54492 l 0,-10.66993 c -10e-6,-0.45701 -0.0176,-0.82029 -0.0527,-1.08984 -0.0352,-0.26952 -0.13477,-0.48045 -0.29883,-0.63281 -0.15234,-0.15233 -0.39258,-0.26366 -0.7207,-0.33399 -0.32813,-0.0703 -0.79102,-0.14061 -1.38867,-0.21093 l 0,-0.70313 c 0.79687,-0.12889 1.53515,-0.31053 2.21484,-0.54492 0.67969,-0.24608 1.34765,-0.53319 2.00391,-0.86133 l 0.61523,0.61524 0.19336,4.37695 c 0.51562,-0.78514 1.08398,-1.48241 1.70508,-2.0918 0.62109,-0.62108 1.24804,-1.14256 1.88086,-1.56445 0.6328,-0.43358 1.24218,-0.7617 1.82813,-0.98438 0.59764,-0.23435 1.12498,-0.35154 1.58203,-0.35156 0.50389,2e-5 0.99022,0.0762 1.45898,0.22852 0.46874,0.15236 0.87889,0.38673 1.23047,0.70312 0.36326,0.31642 0.65037,0.72072 0.86133,1.21289 0.22264,0.48049 0.33397,1.04884 0.33398,1.70508 l 0,11.19727 c -10e-6,0.16406 0.17577,0.32812 0.52735,0.49218 0.36326,0.15235 1.00779,0.34571 1.93359,0.58008 l 0,0.75586 -7.55859,0"
         style=""
         id="path4984" />
    </g>
  </g>
</svg>
