<?xml version="1.0" standalone="no"?>
<!DOCTYPE svg PUBLIC "-//W3C//DTD SVG 20010904//EN"
 "http://www.w3.org/TR/2001/REC-SVG-20010904/DTD/svg10.dtd">
<svg version="1.0" xmlns="http://www.w3.org/2000/svg"
 width="200.000000pt" height="200.000000pt" viewBox="0 0 200.000000 200.000000"
 preserveAspectRatio="xMidYMid meet">
<metadata>
Created by potrace 1.14, written by Peter Selinger 2001-2017
</metadata>
<g transform="translate(0.000000,200.000000) scale(0.100000,-0.100000)"
fill="#000000" stroke="none">
<path d="M172 1824 c-57 -29 -107 -87 -123 -146 -6 -24 -9 -199 -7 -471 l3
-432 27 -46 c27 -46 79 -89 131 -108 17 -7 134 -11 302 -11 209 0 274 -3 277
-12 2 -7 4 -51 3 -98 l0 -85 -145 -5 c-93 -3 -153 -10 -168 -18 -53 -31 -53
-120 1 -152 30 -19 52 -20 343 -20 l312 0 33 -31 c71 -67 80 -68 360 -68 227
0 258 2 296 19 55 24 98 67 123 121 19 42 19 63 17 449 -2 364 -4 408 -19 437
-37 67 -90 108 -165 127 l-48 12 -1 180 c-1 98 -6 197 -12 219 -15 52 -63 110
-115 138 l-42 22 -666 2 -665 3 -52 -26z m1346 -178 c14 -14 17 -43 18 -191
l1 -175 -121 -1 c-67 -1 -124 -1 -128 0 -13 1 -81 -30 -110 -52 -17 -12 -42
-42 -56 -67 -25 -42 -27 -55 -32 -204 l-5 -159 -413 0 c-355 0 -416 3 -429 16
-13 13 -15 71 -14 417 1 273 4 407 12 416 6 7 25 14 42 16 18 2 299 2 625 2
537 -1 595 -3 610 -18z m239 -569 c21 -20 22 -733 1 -753 -22 -22 -444 -22
-466 -1 -12 13 -15 69 -15 376 0 272 3 364 12 375 15 18 69 22 290 19 122 -2
168 -6 178 -16z m-667 -567 l0 -100 -60 0 -60 0 0 100 0 100 60 0 60 0 0 -100z"/>
</g>
</svg>
